External Loads File
version=1
nRows=61
nColumns=13
Range=5.000000e-03-10 seconds
endheader
time 	forceRightX 	forceRightY 	forceRightZ 	pointRightX 	pointRightY 	pointRightZ 	forceLeftX 	forceLeftY 	forceLeftZ 	pointLeftX 	pointLeftY 	pointLeftZ 		
2.505000 -151.985385 -141.761872 -0.000000 0.241898 0.437768 -0.108086 140.463727 1365.918405 -0.000000 0.395786 0.156409 -0.356927
2.510000 -157.986515 -134.284498 -0.000000 0.250903 0.443979 -0.107723 172.210606 1354.998276 -0.000000 0.387762 0.149906 -0.357210
2.515000 -160.659859 -124.689443 -0.000000 0.259374 0.449655 -0.108565 200.349476 1327.450717 -0.000000 0.379582 0.143963 -0.357394
2.520000 -160.943811 -112.280512 -0.000000 0.268552 0.454935 -0.108884 228.230892 1281.640867 -0.000000 0.371110 0.138878 -0.357346
2.525000 -159.068745 -97.384375 -0.000000 0.277983 0.459545 -0.108741 251.815441 1217.746873 -0.000000 0.362582 0.134356 -0.357335
2.530000 -155.381935 -80.328532 -0.000000 0.287240 0.463672 -0.109446 268.608294 1136.911194 -0.000000 0.353986 0.130341 -0.357477
2.535000 -150.308059 -61.270484 -0.000000 0.296840 0.467125 -0.109574 278.578445 1040.909024 -0.000000 0.345430 0.127096 -0.357430
2.540000 -144.074240 -40.605607 -0.000000 0.306623 0.469849 -0.109680 280.931919 932.702751 -0.000000 0.336864 0.124503 -0.357564
2.545000 -136.841251 -18.798524 -0.000000 0.316430 0.472125 -0.109780 275.392088 816.075106 -0.000000 0.328275 0.122860 -0.357615
2.550000 -128.753057 3.699102 -0.000000 0.325988 0.473898 -0.109993 262.612388 695.279393 -0.000000 0.319504 0.121971 -0.357496
2.555000 -119.905187 26.748717 -0.000000 0.335768 0.475184 -0.110215 245.203631 574.189851 -0.000000 0.310384 0.121882 -0.357667
2.560000 -110.432639 49.839651 -0.000000 0.345031 0.475903 -0.110406 223.445097 457.479130 -0.000000 0.301051 0.122438 -0.357543
2.565000 -100.395715 73.226883 -0.000000 0.354165 0.475922 -0.110417 200.309340 348.005538 -0.000000 0.291376 0.123777 -0.357555
2.570000 -89.954926 97.170805 -0.000000 0.362984 0.475373 -0.110134 177.175092 248.050252 -0.000000 0.281543 0.125718 -0.357492
2.575000 -79.290347 122.304443 -0.000000 0.371383 0.474162 -0.109956 155.326642 158.393733 -0.000000 0.271703 0.128312 -0.357262
2.580000 -68.523702 149.549744 -0.000000 0.379320 0.472138 -0.109807 135.441049 78.589358 -0.000000 0.261867 0.131632 -0.356987
2.585000 -57.931489 179.874125 -0.000000 0.386688 0.469554 -0.109689 117.317629 7.763555 -0.000000 0.252192 0.135602 -0.356791
2.590000 -47.651449 214.234470 -0.000000 0.393774 0.466094 -0.109335 100.353426 -55.057688 -0.000000 0.243037 0.140152 -0.356283
2.595000 -37.947518 253.173804 -0.000000 0.400292 0.461777 -0.108754 83.715561 -110.286545 -0.000000 0.234300 0.145211 -0.356204
2.600000 -29.256693 296.651161 -0.000000 0.406205 0.456800 -0.107941 66.778878 -157.741831 -0.000000 0.226187 0.150858 -0.356363
2.605000 -21.962566 344.054683 -0.000000 0.411828 0.451078 -0.107109 49.270378 -196.880840 -0.000000 0.218703 0.156600 -0.356561
2.610000 -16.146813 394.328736 -0.000000 0.417423 0.444769 -0.106988 31.247670 -227.076161 -0.000000 0.211681 0.162748 -0.356386
2.615000 -12.099495 446.116901 -0.000000 0.422406 0.437775 -0.106858 13.425867 -247.832893 -0.000000 0.204565 0.169425 -0.354155
2.620000 -10.173157 497.947962 -0.000000 0.427392 0.429885 -0.106790 -3.027963 -259.090305 -0.000000 0.198226 0.176692 -0.354012
2.625000 -11.077905 548.419853 -0.000000 0.432133 0.421710 -0.106898 -16.657975 -261.372229 -0.000000 0.192256 0.184332 -0.353882
2.630000 -14.162748 596.439134 -0.000000 0.436743 0.412862 -0.106955 -26.863706 -255.714656 -0.000000 0.186761 0.192528 -0.353859
2.635000 -19.778267 641.287826 -0.000000 0.440893 0.403420 -0.106915 -32.864271 -243.573723 -0.000000 0.181702 0.201051 -0.353774
2.640000 -27.416000 682.670030 -0.000000 0.444777 0.393642 -0.106866 -34.632673 -226.616348 -0.000000 0.177195 0.210042 -0.353974
2.645000 -36.554581 720.677609 -0.000000 0.448199 0.383473 -0.107068 -32.473255 -206.556763 -0.000000 0.173178 0.219371 -0.353820
2.650000 -46.978075 755.721367 -0.000000 0.451046 0.372957 -0.107075 -26.902935 -185.012553 -0.000000 0.169731 0.228886 -0.354022
2.655000 -57.544159 788.513015 -0.000000 0.453572 0.362140 -0.107037 -18.883485 -163.380752 -0.000000 0.166943 0.238665 -0.354156
2.660000 -67.745987 819.885983 -0.000000 0.455491 0.351050 -0.106866 -9.270717 -142.860105 -0.000000 0.164859 0.248704 -0.354350
2.665000 -77.276736 850.677671 -0.000000 0.456974 0.340003 -0.106973 1.104503 -124.366924 -0.000000 0.163275 0.258946 -0.354488
2.670000 -84.330378 881.730916 -0.000000 0.457876 0.328702 -0.106936 11.244213 -108.530044 -0.000000 0.162498 0.269542 -0.354593
2.675000 -89.109280 913.461871 -0.000000 0.458277 0.317340 -0.106996 20.523757 -95.686617 -0.000000 0.162321 0.280174 -0.354766
2.680000 -91.239856 946.076662 -0.000000 0.458135 0.305998 -0.106929 28.281638 -85.860386 -0.000000 0.162907 0.290815 -0.354835
2.685000 -89.918535 979.648646 -0.000000 0.457287 0.294697 -0.106789 33.902285 -78.833027 -0.000000 0.164135 0.301512 -0.354760
2.690000 -84.316645 1014.151789 -0.000000 0.455860 0.283413 -0.106536 36.937702 -74.237665 -0.000000 0.166003 0.312315 -0.354668
2.695000 -74.868521 1049.370634 -0.000000 0.453607 0.272295 -0.106647 37.266231 -71.628408 -0.000000 0.168509 0.323096 -0.354529
2.700000 -59.541695 1085.170340 -0.000000 0.450998 0.261268 -0.106532 34.788150 -70.681279 -0.000000 0.171644 0.334329 -0.354323
2.705000 -41.575918 1121.000872 -0.000000 0.447628 0.250362 -0.106426 29.884291 -70.888403 -0.000000 0.175428 0.345048 -0.354022
2.710000 -23.185750 1156.493254 -0.000000 0.443702 0.239875 -0.106444 22.964103 -71.733970 -0.000000 0.179893 0.354984 -0.354118
2.715000 0.346079 1191.390501 -0.000000 0.439101 0.229636 -0.106380 14.115484 -72.739828 -0.000000 0.184870 0.365253 -0.353748
2.720000 26.595751 1225.153361 -0.000000 0.433902 0.219720 -0.106300 3.976628 -73.209758 -0.000000 0.190471 0.375280 -0.353668
2.725000 53.967080 1257.341093 -0.000000 0.428145 0.210267 -0.106301 -6.782476 -72.597059 -0.000000 0.196577 0.384864 -0.353565
2.730000 83.430863 1287.367558 -0.000000 0.421856 0.201202 -0.106471 -17.633495 -70.553785 -0.000000 0.203240 0.394183 -0.353550
2.735000 114.205711 1314.533939 -0.000000 0.415008 0.192553 -0.106556 -28.033390 -66.970981 -0.000000 0.210345 0.403084 -0.353461
2.740000 145.090512 1338.037115 -0.000000 0.407731 0.184588 -0.106606 -37.574532 -61.955555 -0.000000 0.217821 0.411638 -0.353100
2.745000 179.341404 1356.343755 -0.000000 0.399930 0.177083 -0.106603 -46.207452 -55.565241 -0.000000 0.226322 0.419691 -0.354854
2.750000 209.606174 1368.970206 -0.000000 0.391754 0.170028 -0.106540 -53.554753 -48.234605 -0.000000 0.234031 0.427371 -0.352959
2.755000 240.557063 1373.657648 -0.000000 0.383313 0.163755 -0.106486 -59.831904 -40.011992 -0.000000 0.242600 0.434434 -0.352829
2.760000 271.271720 1368.550305 -0.000000 0.374509 0.157916 -0.106513 -65.045266 -31.043271 -0.000000 0.251531 0.440883 -0.352841
2.765000 300.443901 1351.755450 -0.000000 0.365509 0.152576 -0.106747 -69.240433 -21.406429 -0.000000 0.260887 0.446525 -0.353067
2.770000 325.728983 1321.719798 -0.000000 0.356305 0.148102 -0.106724 -72.491890 -11.173381 -0.000000 0.270253 0.451658 -0.353058
2.775000 346.169780 1276.918785 -0.000000 0.347088 0.144118 -0.106634 -74.881562 -0.329495 -0.000000 0.279753 0.455993 -0.353343
2.780000 361.241519 1216.199627 -0.000000 0.337853 0.140736 -0.106442 -76.426027 11.096368 -0.000000 0.289484 0.459916 -0.353487
2.785000 368.545335 1139.712804 -0.000000 0.328623 0.137923 -0.106205 -77.117737 22.816234 -0.000000 0.299174 0.463108 -0.354027
2.790000 366.892139 1048.317339 -0.000000 0.319531 0.135984 -0.105899 -76.927976 34.500358 -0.000000 0.308836 0.465326 -0.354425
2.795000 355.223895 943.968326 -0.000000 0.310824 0.134577 -0.105867 -75.817150 45.851683 -0.000000 0.318362 0.467417 -0.355004
2.800000 334.918757 828.765080 -0.000000 0.302278 0.133848 -0.105857 -73.688243 56.951907 -0.000000 0.327815 0.468909 -0.355379
2.805000 306.914480 705.740164 -0.000000 0.293941 0.133785 -0.105891 -70.524213 68.124187 -0.000000 0.337106 0.469919 -0.355517
